<svg xmlns="http://www.w3.org/2000/svg" viewBox="0 0 256 256"><path d="M64 21v150h9c2 0 4 0 6 1 5 2 7 7 6 12s-5 8-11 8H48c-4 0-8 0-11 1-9 2-17 11-16 22 1 9 8 18 18 19 1 1 4 1 6 1h49c4 0 7 0 10 3s3 7 2 11c-2 5-6 7-11 7H79 44c-20 0-35-11-41-29-2-4-3-10-3-14V54C0 30 14 10 37 3c5-2 11-3 17-3h106c26 0 47 18 52 43 1 5 1 11 1 16s1 11 0 16c0 6-5 10-11 10-5 0-10-5-10-11V54c0-16-11-29-27-32-2-1-4-1-6-1H66h-2zm-21 2c-1 0-2 1-3 1-12 6-19 16-19 31v119 2c4-1 7-3 11-4 3-1 7-1 11-2V23zm64 158c0-41 33-74 74-74s75 32 75 74c0 41-34 75-75 75s-74-34-74-75zm74 54c30 0 54-24 54-53 0-30-24-54-53-54-30 0-54 24-54 53 0 30 23 54 53 54zm25-64h-14v-14c0-6-5-10-11-10-5 0-10 4-10 10v14h-14c-3 0-6 1-7 3-4 3-4 7-3 12 2 4 5 6 10 6h14v14c0 3 1 5 3 7 3 3 7 4 12 2 4-2 6-5 6-9v-14h14c6 0 10-5 10-11 0-5-4-10-10-10z"/></svg>