<svg xmlns="http://www.w3.org/2000/svg" viewBox="0 0 256 256"><path d="M108 197H30c-5 0-8-1-10-5-2-3-2-6-1-10 2-3 4-5 8-6h3 61c6 0 10-5 9-11-1-4-4-7-9-7H31c-3 0-8 0-12 2h-1v-13V30c0-7 5-12 12-12h22 15 91v39c0 6 5 10 11 9 4-1 7-5 7-9V11c0-7-3-11-10-11h-17-82-37 0c-5 0-10 1-14 3C6 8 1 17 0 29v17 6 13 119c0 3 0 6 1 8 2 13 14 23 27 23h7 11l62 1c8 0 13-10 7-16-2-2-4-3-7-3zm18-158h0-20-56c-1 0-2 1-3 1-4 0-7 3-7 7-1 4 1 7 4 9 2 2 4 2 6 2h0 30 16 30 3a10.85 10.85 0 0 0 8-8c0-4-2-8-5-9-2-1-4-2-6-2zm62 39c-38 0-69 31-69 69 0 37 30 68 69 68 37 0 68-31 68-68 0-39-31-69-68-69zm-1 118c-27 0-49-22-49-50 1-27 23-49 50-48 27 0 49 22 49 49-1 27-23 49-50 49zm22-70c-3-1-6 0-9 3-5 7-10 13-15 19-1 2-2 2-4 1-3-2-5-4-8-6-4-2-8-2-10 1-3 4-2 8 1 10 6 4 11 8 16 12 2 1 3 2 5 1 2 1 4-1 6-3 2-3 5-6 7-9l14-17c3-4 2-10-3-12z"/></svg>