<svg xmlns="http://www.w3.org/2000/svg" viewBox="0 0 256 256"><path d="M112 200H31c-5 0-8-2-11-6-1-3-1-6 0-9 1-4 4-6 7-6 2-1 3-1 4-1h63c6 0 10-5 9-11-1-4-5-7-9-7H32c-4 0-8 0-13 2v-13V30c0-7 5-11 12-11h22 15 94v39c0 5 6 10 11 9h1c4-1 7-5 7-9V11c0-7-3-11-11-11h-17-85-38 0c-5 0-9 1-13 3C6 9 1 17 0 29v17 7 13 121c0 2 0 5 1 8 2 13 14 23 28 23h7 12 64c8 0 12-10 6-15-1-2-4-3-6-3zm17-160h0-20-58-3c-3 1-6 4-7 7-1 4 1 8 4 10 2 1 5 1 7 1h0 30 17 30 4c4 0 7-3 7-7 1-4-1-8-4-10-3-1-5-1-7-1zm124 120c-1-1-3-2-4-3l-1-1c-2-2-4-3-6-4h0v-5c2-1 3-2 4-3 1 0 1-1 2-1 1-1 3-2 4-4 3-2 4-5 4-8 0-1 0-3-1-5-2-2-3-5-5-8l-1-1c-1-2-1-3-2-4l-2-3s0-1-1-1c0-2-1-3-2-4-3-5-7-6-12-5-2 0-4 1-5 2h-2c-2 1-4 2-5 2 0 0-1 0-1 1-1-1-2-2-4-2v-1-1c0-3-1-7-1-10-1-6-6-10-11-10h-24-1c-5 0-10 4-11 9v2l-1 2v4c0 1 0 1-1 2v2c-1 1-2 2-4 3 0-1-1-1-2-1l-1-1c-1 0-2-1-3-1-2-1-3-1-5-2s-5-1-7 0c-3 0-5 2-7 5s-4 6-5 9c-2 4-4 7-6 10h0c-1 2-2 4-2 6-1 4 0 7 3 9 1 1 2 2 4 3 0 1 1 1 1 1 2 2 4 3 5 4v5s-1 0-1 1l-2 1c-1 1-3 2-4 3l-1 1c-1 1-3 2-4 4-2 4-2 7 0 11 1 2 2 4 4 7 0 1 1 2 2 3 2 4 4 7 6 11 2 3 4 5 7 5 3 1 6 0 9-1s6-2 9-4c2 1 3 2 4 3v2c1 1 1 2 1 3v2 1 1c1 2 1 5 3 7 2 3 5 5 8 5h20 6 1s1 0 2-1c4-1 6-4 7-7 1-2 1-3 1-4v-1-2c0-1 1-1 1-2v-4c2-1 3-2 4-3 1 1 2 1 2 1 1 0 1 1 2 1 0 0 1 1 2 1s3 1 4 1c1 1 4 2 6 2 4-1 7-3 9-6 1-2 2-3 3-4 1-2 2-3 2-5 3-4 5-8 8-12 2-4 1-9-2-13zm-17 13l-2 3c-1 2-2 4-4 6h0c-3-1-5-2-8-3-1 0-2-1-3-1-2-1-4-1-7 1-1 0-2 1-3 1 0 0-1 1-2 1v1c-1 0-2 1-3 1-4 2-6 5-7 9v5c0 1-1 1-1 2v2c-3 0-6 0-9 1h-5-1c-1-2-1-4-1-6l-1-3v-2-1c-1-3-2-5-5-6-3-2-6-3-9-5h0c-2-1-3-2-5-2-1 0-3 1-4 1-1 1-3 2-5 2-1 1-2 1-3 1 0 1 0 1-1 1h-1c0-1 0-1-1-2-1-3-3-6-5-9l-1-2v-1c3-1 5-3 7-5 2-1 4-3 5-6v-2-4-7c0-3-1-5-4-7-3-3-6-5-9-7 2-3 4-6 5-8s2-3 3-5c2 1 4 2 6 2 1 1 3 1 4 2 4 1 7 1 10-1 1-1 3-2 4-3 1 0 1 0 2-1 1 0 2-1 3-1 2-2 4-4 4-7s1-5 1-8v-2h1 8c1-1 3-1 5-1h2v1 4c1 1 1 2 1 4 0 1 0 2 1 3 0 2 2 5 4 6 1 0 2 1 2 1 3 1 5 3 7 4 3 2 6 2 9 1 4-2 7-3 9-4h1c1 1 1 2 2 3v1c2 2 3 4 4 6l1 1c0 1 0 1 1 2-2 1-4 3-5 4-1 0-1 1-2 1l-3 3c-1 1-2 3-2 6v3 4h0v2c-1 3 0 7 4 10 2 2 4 3 6 5 1 0 1 1 2 1-1 1-2 3-2 4zm-33-41c-5-4-11-6-18-5-10 1-20 9-20 23 0 6 2 12 7 16s10 6 16 6h2c6 0 12-3 16-8s6-10 5-17c0-6-3-11-8-15zm-8 24c-2 2-5 3-7 3-5 0-9-4-9-10h0 0c0-2 1-5 3-6 1-2 4-3 6-3h1c4 0 9 4 9 10 0 2-1 5-3 6z"/></svg>