<svg viewBox="0 0 256 256" xmlns="http://www.w3.org/2000/svg"><path d="M244 0C236 1 229 5 222 9C202 23 184 38 166 54C148 71 130 88 112 105C113 104 129 118 131 120C136 125 141 130 145 135C146 137 155 147 153 149C186 116 217 81 242 42C248 33 253 25 255 15C258 8 254 -1 244 0Z"/><path d="M105 121C102 119 99 118 99 119C90 128 81 137 73 146C73 146 84 152 85 153C88 156 92 158 95 161C103 168 109 176 114 185C122 178 130 170 139 162C141 160 131 147 130 146C126 140 121 134 115 130C114 129 109 125 105 121Z"/><path d="M102 206C101 197 95 188 90 181C81 170 67 155 51 157C46 157 41 159 36 161C27 166 19 175 16 185C15 187 14 190 13 193C12 197 12 203 12 208C11 222 10 237 1 249C-0.691628 251 0 252 2 252C8 253 14 253 20 253C37 253 53 251 69 245C77 242 86 238 92 231C98 225 103 215 102 206Z"/></svg>