<svg viewBox="0 0 256 256" xmlns="http://www.w3.org/2000/svg"><path d="M255 6C253 2 250 0 246 0C243 0 241 0 239 1C231 3 225 8 219 11C200 24 184 39 170 51C127 90 94 122 65 154C65 155 63 155 63 155C51 154 39 158 30 165C21 172 15 183 14 194C13 198 13 202 13 206C13 210 13 213 13 216C12 226 10 237 2 247C2 248 1 248 1 249C1 250 1 250 0 250L0 251L1 251C8 252 15 252 22 252C39 252 54 250 68 245C78 241 85 237 91 232C100 224 104 213 104 198C104 196 104 194 106 193C110 189 114 185 118 181C130 170 143 159 155 147C186 117 211 87 234 55C243 43 252 30 256 14L256 9L255 6ZM71 227C57 233 42 236 25 237C26 234 26 232 26 230C27 224 28 219 28 214C29 211 29 208 29 205C29 203 29 201 29 199C30 188 35 179 45 174C49 172 54 171 58 171C63 171 67 172 71 173C79 177 85 184 87 193C88 198 89 202 88 208C86 216 81 222 71 227ZM99 179C94 171 88 165 80 161L111 128C119 134 126 141 132 149L99 179ZM237 21C235 24 234 26 233 28C221 47 207 66 190 86C179 98 168 110 158 121C153 126 149 131 144 136C144 137 143 137 143 137L123 117C123 116 123 116 124 116C152 88 175 67 197 49C210 37 223 27 236 19C237 19 237 18 238 18C238 18 238 18 238 18L238 18C238 19 237 20 237 21Z"/></svg>