<svg xmlns="http://www.w3.org/2000/svg" viewBox="0 0 256 256"><path d="M128 20H60c-19 0-35 13-39 32-1 3-1 6-1 9v94c0 23 18 41 41 41h76c6 0 10 3 11 7 2 7-2 12-9 13h-2-76c-29 0-53-19-60-48-1-4-1-8-1-12V60C0 30 21 5 51 1c3-1 7-1 10-1h134c31 0 55 20 60 51 1 7 1 15 1 22v5c0 6-4 10-10 10s-10-4-10-10V61c0-23-18-41-41-41h-67zm117 105c-2 5 1 7 5 11 9 8 8 23-3 29-2 2-3 3-2 6 3 14-9 25-23 23-2-1-4 0-5 2-8 11-24 11-32 0-2-3-3-3-5-2-14 2-26-9-23-23 0-3 0-4-2-6-12-7-12-24 0-31 2-2 2-3 2-6-3-14 9-25 22-23 3 1 5 0 6-2 8-11 24-11 32 0 1 2 3 3 6 2 12-2 22 7 22 20zm-44-10c-6 10-14 13-24 10 2 11-1 19-10 24 9 6 12 14 10 25 10-3 18 1 24 10 6-10 14-13 24-10-2-11 1-19 10-25-9-5-12-13-10-24-10 3-18-1-24-10zm-73-60h67c8 0 13 7 10 13-1 4-4 7-8 7h-2H61c-5 0-9-2-10-7-3-7 2-13 9-13h20 48zm72 191c-2 2-4 3-6 5-5 5-12 6-18 3-7-3-10-8-11-16 0-6 0-12 1-18 0-8 8-13 15-9 3 2 4 6 4 9 1 4 0 8 0 12 3-2 5-4 8-7 5-4 10-4 15 0l7 7v-12c1-7 7-12 14-10 4 2 6 5 6 10 1 6 1 13 0 20 0 7-3 12-10 14-6 3-12 2-17-2-3-2-5-4-8-6zM96 115H60c-7 0-12-6-9-13 1-4 4-7 9-7h32 40c5 0 9 3 10 8 1 4-1 9-5 11-2 1-4 1-6 1H96zm-13 20h22c6 0 10 4 10 10s-4 10-10 10H61c-8 0-12-6-10-13 1-4 4-7 9-7h23z"/></svg>