<svg xmlns="http://www.w3.org/2000/svg" viewBox="0 0 256 256"><path d="M249 152c-4-3-8-7-12-9-8-5-10-11-9-18v-1c0-3 1-5 3-7 7-4 13-9 19-14s8-12 4-19c-8-14-16-27-25-41-4-7-10-8-18-6-5 2-9 4-14 6-15 5-9 6-23-2-2-1-3-3-4-5l-3-22c-1-9-6-14-14-14h-50c-8 0-12 4-14 12-1 5-1 10-2 15-1 9-6 15-13 19-2 1-4 1-7 0-6-3-13-5-20-8-2-1-5-2-8-2-6 0-10 3-13 8-8 13-16 26-23 40-4.816 7-4 14 3 19 4 3 8 7 12 9 8 5 11 11 10 20 0 3-1 5-4 7-5 4-11 8-17 13-7.743 6-9 12-4 21 8 13 15 26 23 39 5 7 11 9 20 6 5-2 10-3 15-6 7-4 13-3 19 2 4 2 6 4 6 8 1 7 2 13 3 19 1 9 6 15 17 15 15-1 30 0 45 0 8 0 15-6 16-14 1-4 1-8 2-13 2-12 2-12 13-19 2-1 4-1 7 0 6 2 13 5 19 7 11 5 17 3 23-8 8-12 15-24 22-37 5-7 4-14-4-20zm-121 15h-3c-20-2-37-19-37-39 0-21 17-37 37-39h3 3c21 2 37 19 37 39s-17 37-37 39h-3z"/></svg>