<svg xmlns="http://www.w3.org/2000/svg" viewBox="0 0 256 256"><path d="M7 152l4-4c6-4 11-8 16-12v-1-14-1l-15-12-5-4c-7.475-5-9-13-4-20 7-13 15-26 22-40 5-7 12-10 20-6 2 0 4 1 6 2l4 2c5 1 9 3 14 5 3-1 5-2 7-4h0l6-3c1 0 1-1 1-1 0-4 1-9 2-13v-2c0-3 1-7 1-10 2-9 7-14 16-14h46c8 0 14 5 15 14 1 4 1 9 2 13v3c1 3 1 6 2 9v1l6 3h1c2 2 4 3 6 4h1c4-2 9-4 14-5l2-2c3-1 5-1 8-2 8-4 15-1 19 6l23 39c4 8 3 16-4 21l-5 4-15 12c-1 3-1 6-1 8s1 5 0 7c0 1 0 1 1 1l15 12 5 4c7 5 8 13 4 21l-23 39c-4 7-11 10-19 6l-4-1c-6-2-14-5-20-8h-1-1c-3 3-7 5-11 7-1 0-1 1-1 2-1 3-1 7-2 10h0c0 4-1 8-2 13 0 7-4 12-11 15h0-54-1c-6-3-10-8-11-16l-3-20v-3c-1 0-1 0-1-1l-6-3h0c-2-2-4-3-7-4-6 2-12 5-19 7l-5 2c-8 4-15 1-20-6-8-14-15-27-22-40-4.914-7-3-15 4-20zm33 50c3-1 6-2 9-4h2c5-2 9-4 14-6 4-2 8-1 12 1 5 3 10 7 16 9 4 2 6 5 6 9 1 7 2 15 4 22l1 6h11c10 0 21 0 31-1 1-4 2-9 2-14h0c1-3 2-8 2-13 1-4 3-7 7-9 5-2 10-5 16-9 2-1 4-2 7-2 1 0 2 0 4 1 6 2 13 5 19 7l7 3 1-2c2-2 3-5 4-7l2-2c5-9 10-18 15-26l-11-8v-1c-4-2-7-5-11-8s-5-6-5-11v-19c0-4 1-7 4-9 3-3 7-6 10-8 4-4 8-7 12-10h0c-7-13-15-25-22-37a104.13 104.13 0 0 1-12 5h-1c-4 2-8 4-12 5-4 2-7 1-11-1-5-3-11-6-16-9-4-2-6-5-7-9l-3-19-1-6v-3h-12c-10 0-20 0-31 1-1 4-1 8-2 13h0c-1 5-1 9-2 13 0 5-2 8-7 10-4 2-9 5-16 9-3 2-7 3-10 1-6-2-13-4-18-6l-2-1c-2-1-4-2-6-2l-1-1-7 13c-5 8-9 16-14 24 3 3 7 6 10 8l1 1c4 3 7 6 11 8 3 3 5 6 4 11v19c1 4-1 7-4 10-4 2-7 5-11 8s-8 6-11 9c8 13 15 25 22 37zM85 89c10-10 24-16 39-16h1c14 0 28 5 39 16 10 10 16 24 16 39 0 14-6 28-16 39-10 10-24 16-39 16s-28-5-39-15c-10-11-16-25-17-40 0-14 6-28 16-39zm40 77h0c10 0 20-4 27-11 7-8 11-17 11-27 0-21-17-38-38-38h-1c-21 0-38 17-37 38 0 21 17 38 38 38z"/></svg>