<svg xmlns="http://www.w3.org/2000/svg" viewBox="0 0 256 256"><path d="M256 242c-2-7-3-14-4-21-2-13-5-26-7-40v-3c19-48 13-92-18-131-21-26-49-42-83-46-32-4-64 4-90 23-26 18-44 46-51 78-14.668 68 29 135 97 150 3 1 6 2 10 2 4 1 8 1 12 1 2 0 4 1 6 1h0 0c17-1 34-4 50-10 1-1 3-1 4-1 14 2 28 5 42 8l18 3h2c4 0 7-1 9-3 2-3 4-7 3-11zM70 153h0c-6 0-11-2-16-6-4-5-6-10-6-16s2-11 6-16c4-4 10-6 16-6h0c6 0 11 2 15 6 5 5 7 10 7 16 0 12-10 22-22 22zm74-7c-5 5-10 7-16 7h0c-12 0-22-10-22-22 0-6 2-11 6-16 5-4 10-6 16-6h0c6 0 11 2 16 6 4 5 6 10 6 16s-2 11-6 15zm58 0c-4 5-10 7-16 7h0c-12 0-22-10-22-22 0-6 3-11 7-15 4-5 9-7 15-7s12 2 16 6 6 10 6 16-2 11-6 15z"/></svg>