<svg xmlns="http://www.w3.org/2000/svg" viewBox="0 0 256 256"><path d="M187 150c-11 0-20-8-20-19s9-19 19-19c11-1 20 8 20 19 0 10-9 19-19 19zm-59 0c-10 0-19-8-19-19s8-19 19-19 20 8 20 19-9 19-20 19zm-58 0c-11 0-19-8-19-19s8-19 19-19 19 8 19 19-8 19-19 19zm30 102c3 1 6 2 10 2 4 1 8 1 13 1 1 0 3 1 5 1h0 0c17-1 34-4 50-11h5c14 2 28 5 41 8l18 3h3c3 0 6-1 8-3 3-3 4-7 3-11-1-7-2-14-4-21-2-13-5-26-7-40 0-1 0-2 1-3 18-48 12-92-19-131-21-26-49-42-83-46-32-4-64 4-90 23-26 18-44 46-51 78-14.681 68 29 135 97 150zm130-22c-3 0-7-1-10-2l-36-6c-1-1-3-1-4-1-3 0-6 1-9 2-21 10-43 12-66 7-29-7-55-26-69-53-15-27-17-59-6-87 12-29 35-52 64-62 29-9 61-6 88 10 32 19 49 48 51 87 0 15-3 31-10 47-1 3-2 7-1 9 2 13 4 26 7 39 0 3 1 7 1 10z"/></svg>