<svg xmlns="http://www.w3.org/2000/svg" viewBox="0 0 256 256"><path d="M0 92c0 18 12 29 29 29h28 33c12 0 22-3 28-15 2-5 3-10 3-16V31c0-11-3-20-13-26-5-4-12-5-18-5H30a34.53 34.53 0 0 0-18 5C4 10 1 18 0 28v32h0v32zm108 48c-6-4-13-5-19-5-21 0-42-1-63 1-16 1-26 11-26 26v65c0 18 11 29 29 29h31 0 33c5 0 10-2 15-4 10-5 13-15 13-25v-62c0-10-3-19-13-25zm148 26c-1-9-2-17-9-23-6-6-14-8-22-8-21 0-43-1-64 1-16 1-26 11-26 27v63c0 19 11 30 30 30h30 33c8 0 15-3 21-9 5-6 6-13 7-21v-60zm-112-52c6 5 13 7 20 7h33c10 0 22 1 35-1 13-1 22-10 23-23 2-19 0-38 1-57 0-5 0-11-1-17-1-9-9-19-18-21-5-1-10-2-15-2h-52c-4 0-8 0-11 1-16 2-23 12-24 26-1 22 0 43 0 65 0 8 2 16 9 22z"/></svg>