<svg xmlns="http://www.w3.org/2000/svg" viewBox="0 0 243 256"><path d="M0 107h243v2l-1 93c0 26-16 47-40 53-3 1-7 1-11 1H52c-25 0-45-17-51-42-1-4-1-8-1-11v-95-1zm121 80c9 0 16-8 16-17-1-8-8-16-16-15-8 0-15 7-15 16s7 16 15 16zm-35-16c0-9-7-16-15-16-8-1-15 7-16 16 0 8 7 16 15 16 9 0 16-7 16-16zm86 16c8 0 15-7 15-16s-6-16-15-16c-8-1-15 7-15 16 0 8 6 16 15 16zM0 85c-1.149-18 2-35 15-48s28-17 46-15c0-4-1-7 0-10 0-3 1-6 2-8 3-4 7-5 11-3 4 1 7 5 7 10v10h81v-9c0-4 1-8 5-10 6-5 15 0 15 9v10h9c6 0 13 1 19 4 13 5 22 14 28 27 4 11 5 22 4 33H0z"/></svg>