<svg xmlns="http://www.w3.org/2000/svg" viewBox="0 0 256 256"><path d="M64 21V11c0-5 3-9 7-10 5-2 9-1 12 3 1 2 2 5 2 8 1 3 0 6 0 9h86V10c0-6 5-10 10-10 6 0 11 5 11 11v10c3 0 6 1 9 0 7 0 14 1 21 4 13 5 23 14 29 27 4 8 5 17 5 25v124c0 17-6 31-19 42-10 9-21 13-35 13H54c-26 0-48-18-53-43-1-3-1-7-1-11V75c0-24 16-45 39-52 4-1 9-1 14-1 4-1 7-1 11-1zm-43 86v3 93c0 18 14 32 32 32h150c18 0 32-14 32-32v-93-3H21zm1-22h212c0-5 1-10 0-15-2-17-15-28-32-28H54c-7 0-14 2-19 6-13 10-15 23-13 37zm122 75c0 9-7 16-16 16s-16-8-16-16c0-9 7-16 16-16s16 7 16 16zm-54 0c0 9-7 16-15 16-9 0-16-7-16-16s7-16 16-16c8 0 15 7 15 16zm107 0c0 9-7 16-16 16-8 0-15-7-15-16s7-16 15-16c9 0 16 7 16 16z"/></svg>