<svg xmlns="http://www.w3.org/2000/svg" viewBox="0 0 256 162"><path d="M132 0c14 0 30 4 46 12 30 15 55 37 76 63 3 4 3 7 0 11-19 24-40 43-66 58-15 8-30 14-47 16-18 3-35 0-52-6-22-8-41-21-58-37-10-9-20-19-28-30-3.92-5-4-8 0-13 18-23 39-42 64-57C86 7 106 0 132 0zm105 81c-5-6-10-11-14-16-17-16-35-31-57-40-11-5-22-8-34-8-18-1-35 4-51 12-17 9-33 21-47 35-5 6-10 11-15 17 5 5 10 10 14 15 17 17 35 31 57 40 11 5 22 8 34 8 18 1 35-4 51-12 17-9 33-21 47-35 5-5 10-11 15-16zm-58 0c0 27-23 50-51 50-28-1-51-23-51-50 0-28 23-51 51-50 28 0 51 22 51 50zm-17 0c0-19-15-34-34-34-18 0-34 15-34 33 0 19 15 34 34 34s34-15 34-33z"/></svg>