<svg xmlns="http://www.w3.org/2000/svg" viewBox="0 0 214 256"><path d="M0 128V54C-.262 31 14 10 36 3c6-2 12-3 18-3h46c21 0 40 8 55 22l36 36c10 11 18 24 21 39 1 5 1 11 1 16v89c0 24-13 43-36 51-6 2-12 3-18 3H54c-27 0-49-18-53-44-1-4-1-7-1-11v-73zm21 0v71 8c2 15 15 27 30 28h57 54c6 0 12-3 17-6 9-7 13-16 13-27v-89-3c0-3-1-4-3-4-17 1-33 0-49 0h-9c-14-4-24-17-24-32V24c0-2-1-3-3-3H52c-3 0-6 1-9 2-14 5-22 17-22 31v74zm164-43c-3-4-6-8-10-12-11-12-23-23-35-35-3-3-6-6-10-9-2-1-2 0-2 1v46c0 2 1 3 2 5 2 3 6 5 10 5h42c1 0 2 0 3-1zM96 186v-11-36c0-6 5-11 11-11 5 0 10 5 10 11v43 3c1 0 2-1 2-1l12-12c6-5 14-4 17 3 2 4 1 8-2 11a170.44 170.44 0 0 1-19 19c-12 11-30 11-42 0l-18-18c-4-5-4-11 0-15s11-4 15 0l12 12 2 2z"/></svg>