<svg xmlns="http://www.w3.org/2000/svg" viewBox="0 0 197 256"><path d="M197 106V93 53c0-9-3-15-9-21-9-9-19-18-26-25-5-5-11-7-19-7h0-72-46C13 0 4 7 1 18c-1 2-1 4-1 7v206c0 13 8 22 20 25h0 1 0 155 0c1-1 2-1 3-1 3-1 6-2 8-4 6-4 10-11 10-20v-15-66-44zM25 238c-4 0-7-3-7-7V25c0-4 3-7 7-7h53 40 16 0v9 23c0 5 1 8 3 10s5 3 10 3h21 9 1l1 16-1 144 1 2h0c0 3-1 5-1 6 0 4-2 7-6 7H25zM152 44V24l22 20h-22zm-8 103H53h0-2c-2 0-5 1-7 6-1 3 0 6 2 9 1 2 4 3 6 3h21 13 58c6 0 9-3 9-9s-3-9-9-9z"/><path d="M52 126h33 12 3 4 6c3 0 6-2 7-6 1-3 1-7-1-9-1-2-4-3-6-3H89h-8-8-21c-4 0-7 2-8 6-1 3 0 6 2 9 1 2 4 3 6 3zm58 65H86 70 52h0c-3 0-6 1-8 6-1 3 0 6 2 9 1 2 3 3 6 3h12 8 9 7 22c3 0 6-2 7-5 1-4 1-7-1-10-1-2-4-3-6-3z"/></svg>