<svg xmlns="http://www.w3.org/2000/svg" viewBox="0 0 256 244"><path d="M167 131h49c5 0 9 1 14 2 6 2 12 5 16 9 2 1 3 3 4 5 2 3 4 6 5 10 1 2 1 4 1 6v41 13c0 7-3 12-7 17-5 5-12 8-20 9h-1-43-25c-8 0-16-1-24-2-13-2-25-6-36-11-10-4-19-9-28-15-5-4-9-7-13-11-8-6-15-12-23-19l-15-12c-4-4-9-8-14-12-4-4-6-8-7-13-.653-7 2-13 7-18 4-5 10-7 16-8 7 0 14 2 19 6 6 5 11 9 16 14 6 5 13 10 19 15s12 11 19 16c3 2 6 5 9 7 3 3 8 4 12 4h53c2 0 4 0 5-2 1 0 2-1 2-2 0-2 0-3-1-4 0-2-1-3-3-3-2-1-3-1-5-1h-51c-10 0-19-5-23-13-1-2-2-5-2-7s0-4 1-6c4-7 10-12 19-14 2-1 4-1 6-1h49 0zm39-100c0 4-1 8-3 12-3 6-7 12-11 18-4 4-8 8-12 11-2 3-5 6-8 9-6 4-11 9-17 14-3 2-6 5-9 7l-3 3h-2c-6-5-12-10-17-15-6-4-11-9-16-13-7-6-13-13-18-19-3-4-7-9-9-14-2-4-3-8-3-13 0-7 3-14 9-20 5-5 11-9 19-10 8-2 15-1 22 2 4 1 8 3 11 6 1 1 2 1 2 2 1 1 1 1 2 0 3-3 7-6 11-7 5-3 10-4 15-4 6 0 12 1 17 3 7 3 11 7 15 13 2 3 4 7 4 12 1 1 0 2 1 3z"/></svg>