<svg xmlns="http://www.w3.org/2000/svg" viewBox="0 0 256 232"><path d="M229 232c15 0 27-12 27-27v-36c0-9-3-17-8-24-9-11-21-16-35-16-33-1-65 0-98-1-3 0-6 1-8 2-6 2-10 4-13 9-1 1-2 3-3 4-2 2-2 2-4 0l-36-30c-12-10-29-10-41-1-13.121 10-13 30-1 40 14 11 27 23 40 34 7 5 13 11 20 17 14 10 28 17 44 22 12 4 24 6 37 6 8 1 16 1 24 1h34 21zm-66-18c-9 0-18-1-27-2-13-2-26-7-38-13-10-5-18-12-26-19-17-13-33-27-49-41-4-3-4-7-1-11 4-4 11-5 15-1l61 51c5 4 11 6 17 6h29 24a8.96 8.96 0 0 0 9-9c-1-7-5-10-11-10h-49c-2 0-4 0-6-1-5-3-6-9-1-13 2-2 5-3 8-3h48 48c4 0 8 1 12 3 6 4 10 9 10 17v31c0 8-7 15-15 15h-58zM83 50c6 10 14 18 23 26 11 10 22 19 33 28 1 1 2 1 2 0 4-2 7-5 10-8 11-9 22-18 32-29 6-6 11-11 15-18 3-6 5-11 5-20 0-11-7-20-18-25-9-4-18-5-27-3-6 2-12 5-17 10 0 1-1 1-2 0s-2-2-3-2c-9-7-19-10-31-8-10 1-18 6-23 15-4 5-6 11-5 17s3 12 6 17zm28-31h1c6 0 10 3 14 7 4 5 9 10 13 14 1 1 1 1 2 0 5-5 10-10 14-15 5-5 13-7 19-5s11 9 7 16c-2 5-5 9-8 13-9 10-19 19-29 27 0 1-1 2-2 2-1 2-2 1-3 0-6-5-12-10-17-15-6-5-12-11-17-17-2-3-5-7-6-10-3-9 3-17 12-17z"/></svg>