<svg xmlns="http://www.w3.org/2000/svg" viewBox="0 0 256 256"><path d="M0 128V33C-.189 16 12 2 28 0h5 71c17 0 31 13 32 30 1 16 0 32 0 48v9c0 1 0 2-2 2h-18c-2 0-2-1-2-3V61 33c0-7-4-11-12-11H34c-7 0-12 4-12 11v190c0 7 5 11 12 11h68c8 0 12-4 12-11v-53c0-3 0-3 3-3h17c2 0 2 1 2 2 0 18 1 36 0 54 0 14-6 24-19 30-4 2-8 3-12 3H31c-16 0-31-15-31-31v-97h0zm224 11h-3H77h-3c-1 0-2-1-2-2v-18c0-1 1-2 2-2h3 144 3c0-1-1-2-2-2l-41-41c-2-2-2-3 0-5l11-11c1-1 2-1 4 0l50 49c5 5 8 9 9 15 2 9 0 18-6 24l-53 52c-2 1-3 1-4 0-4-4-8-8-12-11-1-2-1-3 0-5l42-40c1-1 1-2 2-3z"/></svg>