<svg xmlns="http://www.w3.org/2000/svg" viewBox="0 0 256 256"><path d="M246 183c-8-10-18-18-30-23-8-5-17-7-27-5-8 1-15 5-21 11-5 5-10 10-15 14-1 1-2 2-3 1-2-2-5-3-7-5-14-9-27-20-39-32-11-11-20-24-29-38 0-1 0-2 1-3 4-5 9-9 13-14 4-4 8-9 10-14 5-13 3-25-3-36-5-11-13-20-22-29C63 0 47-3 33 3c-9 4-14 10-19 18C4 36 0 53 0 70c0 14 3 28 7 41 8 26 22 49 39 69 31 36 72 64 118 74 12 2 24 3 36 1 16-2 30-7 42-18 17-14 19-38 4-54zm-15 38c-4 4-9 7-14 9-14 7-29 8-44 5-49-7-94-41-122-81-5-7-10-14-13-21-11-20-18-41-18-64 0-4 0-8 1-13 1-11 6-22 14-30 4-5 10-7 16-6 5 1 8 3 12 6 6 7 12 14 16 23 2 4 3 8 3 12 0 7-4 11-8 15-6 7-12 13-18 19-4 4-4 8-2 12 1 3 3 6 4 9 13 21 29 40 48 57 13 11 27 21 42 29 5 3 9 2 13-2l17-17c4-4 8-7 13-9 7-1 13 1 19 4 8 5 15 11 21 17 7 8 7 19 0 26z"/></svg>