<svg xmlns="http://www.w3.org/2000/svg" viewBox="0 0 256 205"><path d="M256 26c0-13-7-22-18-25-3-1-6-1-8-1H26C14 0 6 6 2 17c-1 1-1 2-1 4 0 0 0 1-1 1v-1 163s1-1 1-3v1c0 7 3 12 8 16 2 3 5 5 9 6h3 1c0 1-1 1-1 1h214c-1 0-1-1-2-1 5 1 10-2 14-5s6-7 8-12c0-3 1-5 1-8V26zm-16 153c0 6-4 9-10 9h-6-96-95c-3 0-6 1-8 0-6 0-9-4-9-9v-67-81-5c0-6 4-9 10-10h6 195c2 0 4 0 6 1 4 1 7 4 7 9v10 136 7zm-111-52c-5-9-12-16-21-21 6-6 10-13 11-21 2-10-1-19-7-27-6-7-14-12-24-13-9-1-19 2-26 8-8 6-12 14-13 23-1 12 3 22 12 30-4 2-7 5-10 8-7 7-12 15-15 24-2 4-3 8-3 12-1 1-1 2-1 3v3c1 1 2 1 3 1 2 1 5 1 7 1h3c1 0 2 0 2-1 1-1 1-2 1-2v-5c3-12 9-21 17-28 10-8 21-9 33-4 7 3 12 8 17 16 4 6 6 14 7 22 0 0 0 1 1 2h2 4 2c2 0 3-1 4-1h1c1 0 2-1 2-2-1-10-4-19-9-28zM98 94c-4 3-9 5-14 5h0 0c-10 1-18-9-19-17s2-13 5-15c4-4 9-7 14-7s10 2 14 6 6 9 6 14-2 10-6 14zm113 3h-25 0-24-3c-4 1-6 5-6 9 1 4 5 7 9 7h49c3 0 5-1 6-3 3-2 3-5 2-9-1-3-4-4-8-4zm0 50h-15-34c-5 0-8 3-9 7a8.96 8.96 0 0 0 9 9h24 25c4 0 6-2 8-5 1-3 1-5-1-8-2-2-4-3-7-3zm-50-84h25 25c1 0 2 0 3-1 4-1 6-5 6-9-1-3-4-6-8-6h-3-44-4c-5 0-9 5-8 9s4 7 8 7z"/></svg>