<svg xmlns="http://www.w3.org/2000/svg" viewBox="0 0 260 256"><path d="M131 72c-4 0-8 1-11 2-3 2-6 4-7 7-2 2-3 5-3 8 0 5-4 10-10 10-5 0-10-5-10-10 0-7 2-14 6-19 4-6 9-11 16-14 6-3 13-4 20-3 7 0 14 2 20 6s11 9 14 15 4 13 3 20-5 13-9 18c-5 5-11 9-18 11l-2 2-1 1v9c0 6-4 10-9 10-6 0-10-4-10-10v-9c0-5 1-9 4-13s8-7 12-8c4-2 7-4 9-6s3-5 4-8c0-3 0-6-1-8-2-3-4-6-7-7-3-2-6-4-10-4zm-10 95c3-2 6-3 9-3s7 2 10 5c3 2 4 6 4 10 0 3-1 6-2 8-2 3-4 4-7 6-3 1-5 1-8 0-3 0-6-2-8-4s-3-4-4-7 0-6 1-9c1-2 3-4 5-6zM0 128C0 57 58 0 130 0c71 0 129 57 129 128s-58 128-129 128C58 256 0 199 0 128zM130 20C69 20 20 68 20 128s49 108 110 108c60 0 109-48 109-108S190 20 130 20z"/></svg>