<svg xmlns="http://www.w3.org/2000/svg" viewBox="0 0 256 256"><path d="M256 15c-1 22-6 43-13 63-16 40-41 72-74 99-19 15-39 28-61 39-6 2-11 2-15-3-17-16-34-33-50-50-5-4-5-9-3-14 16-33 36-63 63-88 30-29 66-48 107-57 11-2 22-3 33-4 7 0 14 5 13 13v2zm-78 29c-19 0-34 15-35 33 0 20 16 36 35 36s34-16 34-35-15-34-34-34zm23 123c6 14 7 27-2 40-9 11-18 22-28 33l-14 14c-4 3-8 2-10-2-3-12-7-23-10-34-1-1-1-2 0-3 23-13 44-29 63-47 0-1 0-1 1-1zM68 50c7 1 14 3 20 4 2 1 1 2 0 3-5 5-10 10-14 15-13 14-23 30-32 46-2 2-3 2-5 1-10-3-21-7-32-10-5.124-2-7-6-3-10 14-13 27-27 43-38 6-5 12-9 20-10 1 0 2-1 3-1zM26 190l40 40c-9 6-20 9-30 12l-23 3c-1 0-2-1-2-2 1-19 6-36 15-53zM160 78c0-10 8-18 18-18s18 8 18 18-8 18-18 18-18-7-18-18z"/></svg>