<svg xmlns="http://www.w3.org/2000/svg" viewBox="0 0 256 256"><path d="M256 23c-1 11-3 23-5 34-3 16-9 31-16 46-7 12-14 24-22 35-4 4-7 8-11 13-1 1-1 2-1 4 3 7 6 15 7 22 2 9 0 17-5 25-5 10-12 18-19 25-7 9-15 17-23 25-6 6-20 6-23-6-1-6-4-12-5-19-2-5-4-9-5-14 0-3-1-3-3-2-3 2-6 3-9 5-7 4-15 5-22 2-1-1-2-1-2-2-12-11-23-22-34-34-6-5-11-10-16-15-7-7-8-16-3-25 3-3 4-7 7-11 0-1 0-2-1-2-10-4-20-7-30-10-2-1-5-1-7-2-8.359-4-11-14-4-21 9-10 18-20 29-28 7-6 14-11 22-15 9-6 20-6 30-3 6 1 11 3 16 5 2 1 3 0 4 0 8-8 17-14 26-20 12-8 25-14 38-20 12-5 25-9 39-12 9-2 19-3 29-3 12 0 19 9 19 20v3zm-24-7c-7 0-15 1-22 3-13 2-25 6-37 11-16 6-30 14-43 24l-18 15c-8 6-15 14-21 22-3 5-8 9-11 14-10 14-19 28-26 43-3 5-3 6 1 10 9 9 18 18 27 26 6 6 11 12 17 18 3 3 3 3 7 1 11-5 21-11 31-17 4-3 8-5 12-8 8-6 17-12 24-20l19-19c10-11 18-23 25-36 14-26 22-54 24-83 0-3-1-5-4-4h-5zm-39 168c0-6-2-12-4-17 0-2-1-2-2-1-14 14-29 25-45 35-1 1-1 2-1 3 4 11 7 21 11 31 0 3 0 3 3 1 7-7 13-14 20-21 5-7 10-13 14-20 2-3 4-7 4-11zM18 104c1 0 2 0 3 1 11 3 21 6 31 9 2 1 3 1 3-1 4-6 9-12 14-19 6-9 13-17 21-25 1-1 1-2-1-3-3 0-6-1-8-1-7-2-12-2-18 1-4 2-8 4-11 7-9 7-17 14-25 21-3 3-6 7-9 10zm2 142c-7 0-10-5-9-9 0-6 1-12 2-18 1-13 6-25 12-36 1-3 5-5 8-4 4 0 6 2 7 6 0 2-1 4-2 6-6 11-10 23-11 36 0 2 0 2 2 2 12-1 24-5 35-11 3-1 7-2 10 0 3 1 3 3 4 5 0 3-1 6-4 7-2 2-5 3-7 4-15 8-31 11-47 12zM142 81c0-17 15-32 33-32s33 15 33 32c-1 20-16 33-34 33-16-1-32-14-32-33zm33 17c9 0 17-7 17-17-1-10-7-16-17-16s-17 6-17 16 7 17 17 17z"/></svg>