<svg xmlns="http://www.w3.org/2000/svg" viewBox="0 0 256 256"><path d="M213.943 203.582l-43.737-43.736a73.39 73.39 0 0 0 16.368-51.954c-1.41-18.777-9.984-36.293-23.947-48.925a73.39 73.39 0 0 0-101.131 2.529 73.39 73.39 0 0 0-2.529 101.131c12.632 13.963 30.148 22.537 48.925 23.947a73.39 73.39 0 0 0 51.954-16.368l43.736 43.737a7.33 7.33 0 0 0 10.272-.089 7.33 7.33 0 0 0 .089-10.272zm-100.435-31.456a58.62 58.62 0 0 1-54.157-36.186 58.62 58.62 0 0 1 12.707-63.882 58.62 58.62 0 0 1 63.882-12.707 58.62 58.62 0 0 1 36.186 54.157c-.017 15.541-6.199 30.441-17.188 41.43s-25.889 17.171-41.43 17.188z"/></svg>