<svg xmlns="http://www.w3.org/2000/svg" viewBox="0 0 257 256"><path d="M3 99c2-4 4-6 8-6 4-1 8-1 12-2h4c1-1 2-1 3-1l14-2 41-6c1 0 1 0 2-2l15-30 6-12c4-7 7-15 11-23 2-3 4-6 9-6s8 3 9 6c3 7 7 14 10 20h0l21 42c1 4 3 5 7 6 19 2 39 5 53 7l6 1c4 1 7 1 11 2 4 0 7 3 8 6 2 5-2 9-3 10l-14 14-7 6-32 32-1 1 9 50 1 9 3 15c0 3 0 6-2 8-1 2-3 3-5 3s-5 0-8-1l-65-35h-2c-13 7-25 14-36 19l-5 3c-2 1-4 2-7 3-1 1-3 2-4 3h-1c-4 2-9 5-13 7-2 1-3 1-5 1-1 0-3 0-4-1-3-2-5-5-5-8v-1c1 0 1-1 1-1l2-14 10-60v-1l-21-21-17-16-7-7-9-8c-2-3-3-5-3-7v-3zm72 52c3 3 4 6 4 11h0l-9 52-2 8h1c3-1 5-3 7-4l12-6c10-5 22-12 34-18 2-1 4-2 6-2s4 1 7 2l40 22 13 6v-2c-1-3-1-6-2-9l-2-14-6-36c-1-5 1-8 3-10 8-7 15-14 22-21l3-3c7-7 13-13 20-19l-3-1c-7 0-13-1-19-2l-6-1c-12-2-23-3-34-5-4 0-7-3-8-6l-23-46-5-10-6 13-21 42c-2 4-5 7-10 7-16 2-31 5-49 7l-8 1c-1 1-2 1-3 1l8 8 36 35z"/></svg>