<svg xmlns="http://www.w3.org/2000/svg" viewBox="0 0 256 256"><path d="M11 93c-4 0-7 2-8 6v3c0 2 1 4 3 7l9 8c2 3 5 5 7 7l17 16 21 21v1l-10 58v2l-2 14c-1 0-1 1-1 1v1c0 3 2 6 4 8 2 1 3 1 5 1s3 0 5-1l12-6v-1h1c2-1 4-2 5-3 3-1 5-2 7-3l5-3c11-5 23-12 36-19h2l65 35c3 1 6 1 8 1s4-1 5-3 2-5 2-8l-3-15-2-9c-2-16-5-33-8-50v-1c11-11 22-22 33-32l7-6c4-5 9-9 14-14h0c1-1 5-5 3-10-1-3-4-6-8-6-4-1-8-1-12-2l-5-1-53-7c-4-1-6-2-8-6-6-14-13-28-20-42h0c-3-6-7-13-10-20-2-3-4-6-9-6s-7 3-9 6c-4 8-8 16-11 23l-6 12-15 30c-1 2-1 2-2 2l-41 6-14 2-4 1h-4c-3 1-7 1-11 2z"/></svg>