<svg xmlns="http://www.w3.org/2000/svg" viewBox="0 0 213 256"><path d="M21 137V67c0-2 0-3-3-3H8c-5-1-8-6-8-10-.033-6 3-10 8-11h5 29c1 0 2 0 2-2C49 19 69 1 95 0c9 0 18 0 27 1 13 1 23 6 32 14 7 7 12 16 15 26 0 2 1 2 2 2h30c3 0 6 1 9 3 3 3 4 7 2 11-2 5-5 7-10 7h-9c-1 0-2 0-1 2v2 133c0 9-2 19-7 27-11 18-26 27-47 28H75c-28 0-50-20-53-47-1-3-1-6-1-9v-63zm21-2v68c0 17 14 31 31 32h66c18-1 31-15 31-33V67c0-3 0-3-2-3H45c-2 0-3 0-3 3v68zm64-92h39c2 0 2 0 1-2-5-12-14-19-27-19-8-1-15-1-23-1-14 1-23 7-29 19-2 3-2 3 1 3h38zM96 149v31c0 5-2 9-6 11-7 3-15-2-15-9a704.54 704.54 0 0 1 0-65c0-6 4-10 10-10 5 0 10 4 10 9 1 5 1 9 1 14v19zm21 0v-31c0-7 5-12 12-11 5 1 9 5 9 10v65c0 5-5 10-10 10-6 0-11-5-11-11v-30-2z"/></svg>