<svg xmlns="http://www.w3.org/2000/svg" viewBox="0 0 256 256"><path d="M147 18l-9-3c-2 0-3 0-5-1h-10l-2 1h-3c-32 5-55 36-50 68 3 17 11 31 24 41 11 7 23 11 36 11 3 0 7 0 10-1 27-4 48-27 50-55 2-27-15-53-41-61zm26 57c0 12-5 23-13 32-9 8-20 13-32 13h0c-25 0-45-21-45-45a44.81 44.81 0 0 1 45-45h0a44.81 44.81 0 0 1 45 45zm52 135c-10-37-45-63-83-64h-28c-4 0-9 1-12 1-20 3-39 14-53 29-13 16-21 36-21 56 0 3 1 6 2 7 2 2 4 3 7 3h182c3 0 5-1 7-3 1-1 2-3 2-6 0-8-1-15-3-23zM44 226v-3c1-3 1-6 2-9 9-27 27-44 54-51 4-1 8-1 13-1h30c32 0 61 24 68 56 0 2 0 4 1 6v2H44z"/></svg>