<svg xmlns="http://www.w3.org/2000/svg" viewBox="0 0 256 256"><path d="M184 53c1 0 1 0 2 1 25 3 42 27 38 52-1 12-8 23-18 31-8 6-18 9-27 9-3 0-6-1-8-1-21-3-37-21-39-43-1-20 12-40 32-47 2 0 5-1 7-1h0 0c1-1 2-1 3-1h1 7 2 0zm14 103c16 3 30 11 40 22 10 12 16 27 16 43 0 3 0 5-2 6-1 2-3 2-6 2H110c-2 0-4 0-5-2-2-1-2-3-2-6 0-5 1-11 2-17 0 0 0-1 1-2v-2c1-3 3-7 5-10 0 0 0-1 1-2 4-6 9-12 15-18 2-1 3-2 5-3 1-1 3-2 5-3s3-2 5-3c8-3 17-5 26-5 9-1 15-1 21 0h9zM85 27h-2-2-7-1c-1 0-2 0-3 1-2 0-5 0-7 1-20 7-33 27-32 47 2 22 18 40 39 43 2 0 5 1 7 1 10 0 20-4 28-9 10-8 17-19 18-31 4-25-13-49-38-53h0z"/><path d="M149 172l-3-6c-1-1-2-3-2-4-2-3-5-6-7-9-10-12-24-20-40-22-3-1-6-1-9-1H67c-29 0-55 20-63 49-2 5-2 11-2 17 0 2 0 4 2 6 1 1 3 2 5 2h111v-1c0-1 1-1 1-2 1-3 3-6 5-9l2-2H16c0-2 1-3 1-5 5-23 26-41 49-41h23c3 0 6 0 9 1 15 4 26 12 33 24 1 1 2 3 3 5 1 1 2 3 2 5l1 1h1c2-2 3-3 5-3 1-1 3-2 5-3l1-1v-1z"/><path d="M96 133c15 3 29 11 39 23 11 12 17 27 17 42 0 3-1 5-2 6-2 2-4 2-6 2H8c-3 0-5 0-6-2-1-1-2-3-2-5 0-6 1-12 2-18 1 0 1-1 1-2 0 0 0-1 1-1 1-4 2-7 4-11l1-1c4-7 9-13 16-18 1-2 3-3 4-4 2-1 4-2 5-3 2-1 4-2 5-3 9-3 18-5 27-5h20 10z"/></svg>