<svg xmlns="http://www.w3.org/2000/svg" viewBox="0 0 256 238"><path d="M119 0h0C85 0 58 27 58 60c0 16 7 32 18 43 11 12 27 18 43 18h0c33 0 60-27 60-60 0-34-27-61-60-61zm0 21h0c21 0 39 18 39 39 0 11-4 21-11 28-8 8-18 12-28 12h0c-22 0-40-18-40-39 0-11 4-21 12-28 7-8 17-12 28-12zm-1 196H47 21c0-8 0-14 2-20 6-26 28-43 54-43h21 18c6 0 11-4 11-10s-5-10-11-11h-9-11c-9 0-18 0-27 1-33 3-61 28-68 61-1.056 8-1 17-1 24v7c-.031 4 1 7 3 9s5 3 9 3h56 24 7 8 11c5 0 9-3 10-7 2-3 1-7-1-9-2-3-5-5-9-5zm137-72c-4-24-29-41-53-35-22 5-36 24-35 46 1 3 0 5-3 8l-21 21c-3 2-4 5-4 8v12 12c0 5 4 9 10 9h23c3 0 6-1 8-4 8-8 16-15 23-23 2-1 3-1 4-1 4 0 7 0 11-1 25-3 42-27 37-52zm-50 36c-4-1-7 0-10 3-8 8-16 16-24 23 0 1-2 2-3 2h-12v-13c0-1 1-2 2-2 8-8 15-16 23-24 3-3 4-6 4-11-4-15 6-30 21-33s30 7 33 23c4 19-14 36-34 32zm7-40c-7 0-12 6-12 12 0 7 5 12 11 13 7 0 13-6 13-12 0-7-6-12-12-13z"/></svg>