<svg xmlns="http://www.w3.org/2000/svg" viewBox="0 0 256 256"><path d="M179 128c-4-2-9-4-14-5 16-11 25-30 25-50 0-34-28-62-62-62S66 39 66 73c0 20 10 39 25 50-14 5-27 12-39 21-21 17-35 41-41 68-1 8 1 17 6 23 5 7 13 10 21 10h113c5 0 10-4 10-9s-5-9-10-9H38c-3 0-6-2-7-3-2-3-2-6-2-9 10-45 50-79 97-80h2 2c15 1 28 4 41 10 5 2 10 0 12-4 3-5 1-10-4-13zm-49-11h-2-2c-23-1-42-20-42-44s20-44 44-44 44 20 44 44-19 43-42 44zm106 76h-25v-26a9 9 0 1 0-18 0v26h-26a9 9 0 1 0 0 18h26v25a9 9 0 1 0 18 0v-25h25a9 9 0 1 0 0-18z"/></svg>