<svg xmlns="http://www.w3.org/2000/svg" viewBox="0 0 256 256"><path d="M186 54c-1-1-1-1-2-1h-2-7-1c-1 0-2 0-3 1-2 0-5 1-7 1-20 7-33 27-32 47 2 22 18 40 39 43 2 0 5 1 8 1 9 0 19-3 27-9 10-8 17-19 18-31 4-25-13-49-38-52h0zm-7 78h0c-9 0-17-4-23-10-7-6-10-14-10-23 0-18 15-32 32-32v-1 1c18 0 33 14 33 32s-15 33-32 33h0zm59 46c-10-11-24-19-40-22h-9c-6-1-12-1-21 0-9 0-18 2-26 5-2 1-3 2-5 3s-4 2-5 3c-2 1-3 2-5 3-6 6-11 12-15 18-1 1-1 2-1 2-2 3-4 7-5 10v2c-1 1-1 2-1 2-1 6-2 12-2 17 0 3 0 5 2 6 1 2 3 2 5 2h136c3 0 5 0 6-2 2-1 2-3 2-6 0-16-6-31-16-43h0zm-121 37c0-2 1-3 1-4 0-3 1-6 2-8 0-1 1-1 1-2 1-3 3-6 5-9 1-1 1-2 2-2 1-2 3-4 5-6s3-3 5-4c2-2 3-3 5-3 1-1 3-2 5-3 6-3 13-4 20-5 8 0 15 0 22 1 3 0 6 0 9 1 20 4 33 17 39 37 1 2 1 4 2 6v1H117h0zM85 27h-2-2-7-1c-1 0-2 0-3 1-2 0-5 0-7 1-20 7-33 27-32 47 2 22 18 40 39 43 2 0 5 1 7 1 10 0 20-4 28-9 10-8 17-19 18-31 4-25-13-49-38-53h0zm-8 13v1c18 0 33 14 33 32s-15 33-32 33h0c-9 0-17-4-23-10-7-6-10-14-10-23 0-18 15-32 32-32v-1h0z"/><path d="M149 172l-3-6c-1-1-2-3-2-4-2-3-5-6-7-9-10-12-24-20-40-22-3-1-6-1-9-1H67c-29 0-55 20-63 49-2 5-2 11-2 17 0 2 0 4 2 6 1 1 3 2 5 2h111v-1c0-1 1-1 1-2 1-3 3-6 5-9l2-2H16c0-2 1-3 1-5 5-23 26-41 49-41h23c3 0 6 0 9 1 15 4 26 12 33 24 1 1 2 3 3 5 1 1 2 3 2 5l1 1h1c2-2 3-3 5-3 1-1 3-2 5-3l1-1v-1h0z"/></svg>