<svg xmlns="http://www.w3.org/2000/svg" viewBox="0 0 256 257"><path d="M0 128V41C0 23 10 8 27 2c4-1 9-2 14-2h121c23 0 41 17 41 40v77c0 5-3 9-8 10s-10-2-11-6c-1-2-1-4-1-6V41c0-8-4-15-11-19-3-1-7-2-10-2H41c-12 0-21 9-21 21v174c0 12 9 21 21 21h63c5 0 8 2 10 6 2 7-2 13-9 14h-5-60c-19 0-35-13-39-32-1-3-1-7-1-10v-86zm256 37c0 9-3 17-9 23-18 17-36 35-54 53-2 2-4 3-6 4-13 3-25 7-38 10-7 2-12 0-13-6-1-2-1-5 0-7 3-12 7-25 11-37 1-2 2-5 4-6l53-54c9-8 19-11 30-8 11 4 18 11 21 22 1 3 1 5 1 6zm-53 10l-2 2c-9 9-18 18-28 27-5 5-9 11-11 19 0 3-1 5-2 9 7-2 13-4 19-6 1 0 2-1 3-2l28-28c2-2 5-4 7-6-5-5-10-10-14-15zm28 0c6-5 7-12 2-16-5-5-11-4-16 2 5 4 10 9 14 14zM66 128c7-8 14-16 21-25 2-3 6-5 10-4 8 2 10 11 5 17l-15 18c-3 4-5 7-9 10-7 8-17 8-25 1-3-4-6-7-10-10-4-5-4-11 0-15s10-4 15 0a30.44 30.44 0 0 0 8 8zm0 61c7-8 14-17 21-25 4-6 11-6 16-1 3 4 3 9-1 14-7 8-14 17-22 26-1 2-2 3-4 4-7 5-16 5-23-2-3-3-6-7-10-10-4-5-4-11 0-15s10-3 14 1c3 2 6 5 9 8zm0-122c7-8 14-17 21-25 3-5 9-6 13-3 6 3 7 10 2 16L87 73c-3 3-5 7-9 10-7 7-17 7-24 0-4-3-7-7-11-10-4-5-4-11 0-15s10-3 15 1c2 3 5 5 8 8z"/><path d="M138 65c5 0 10-1 14 0 7 0 11 4 11 10 0 5-4 9-11 10h-28c-6-1-10-5-10-10 0-6 4-10 10-10 5-1 10 0 14 0zm0 81h-14c-6 0-11-4-10-10 0-6 4-10 10-10h28c7 0 11 4 11 10s-4 10-11 10h-14z"/></svg>