<svg xmlns="http://www.w3.org/2000/svg" width="9" height="11"><path d="M7.021 1.606l1.021.851c.07.059.156.087.241.087.108 0 .215-.046.289-.135.133-.159.112-.397-.048-.53l-1.021-.851c-.159-.133-.397-.112-.53.048s-.112.397.048.53zm-6.368.939a.38.38 0 0 0 .241-.087l1.021-.851c.159-.133.181-.37.048-.53s-.37-.181-.53-.048L.412 1.88c-.159.133-.181.37-.048.53.074.089.181.135.289.135zm6.952.194c-.749-.749-1.718-1.197-2.761-1.283v-.392c0-.208-.168-.376-.376-.376s-.376.168-.376.376v.392c-1.043.087-2.012.535-2.761 1.283-.838.838-1.3 1.952-1.3 3.137S.492 8.175 1.33 9.013s1.952 1.299 3.137 1.299a4.4 4.4 0 0 0 2.629-.863c.167-.123.203-.359.08-.526s-.359-.203-.526-.08a3.65 3.65 0 0 1-2.183.716A3.69 3.69 0 0 1 .783 5.876a3.69 3.69 0 0 1 3.685-3.685A3.69 3.69 0 0 1 7.699 7.65c-.1.182-.034.411.148.511s.411.034.511-.148a4.44 4.44 0 0 0 .547-2.136c0-1.185-.461-2.299-1.299-3.137zm-1.306.874c-.161-.131-.398-.106-.529.056L4.585 5.133a.75.75 0 0 0-.117-.009c-.415 0-.752.337-.752.752s.337.752.752.752.752-.337.752-.752a.75.75 0 0 0-.05-.27l1.186-1.465c.131-.161.106-.398-.056-.529z"/></svg>