<svg xmlns="http://www.w3.org/2000/svg" width="20" height="20"><path d="M10 6.25a3.75 3.75 0 1 0 0 7.5 3.75 3.75 0 1 0 0-7.5zM7.75 10a2.25 2.25 0 1 1 4.5 0 2.25 2.25 0 1 1-4.5 0zm2.253 7.887c-.114 0-.228.024-.332.07a.82.82 0 0 0-.275.199l-.001.002-.756.833a2.32 2.32 0 0 1-4.031-1.665v-.004l.058-1.121c.006-.114-.012-.229-.053-.335a.82.82 0 0 0-.47-.47c-.107-.041-.221-.059-.335-.053l-1.12.057c-.478.025-.952-.099-1.356-.354s-.721-.629-.904-1.071a2.32 2.32 0 0 1 .585-2.607l.834-.753a.82.82 0 0 0 0-1.216l-.001-.001-.833-.756A2.32 2.32 0 0 1 .429 6.04c.182-.441.497-.815.9-1.071s.875-.381 1.352-.358h.002l1.122.057a.82.82 0 0 0 .336-.053c.107-.041.204-.104.285-.185s.144-.178.185-.285a.82.82 0 0 0 .053-.336v-.004L4.61 2.684A2.32 2.32 0 0 1 6.037.43a2.32 2.32 0 0 1 2.601.582l.001.001.754.832a.81.81 0 0 0 .275.199.83.83 0 0 0 .332.071h.005a.81.81 0 0 0 .332-.071c.105-.047.198-.114.275-.199l.754-.832.001-.001a2.32 2.32 0 0 1 2.6-.582 2.32 2.32 0 0 1 1.429 2.251l-.054 1.121v.004a.82.82 0 0 0 .053.336c.041.107.104.204.185.285s.178.144.285.185a.82.82 0 0 0 .336.053l1.122-.057h.002c.477-.023.949.102 1.352.358s.717.63.9 1.071a2.32 2.32 0 0 1-.584 2.603l-.833.756-.001.001a.82.82 0 0 0 0 1.216l.834.753a2.32 2.32 0 0 1 .585 2.607c-.183.441-.499.816-.904 1.071a2.32 2.32 0 0 1-1.356.354l-1.12-.057c-.114-.006-.228.012-.335.053a.82.82 0 0 0-.285.185c-.081.081-.144.178-.185.285s-.059.221-.053.335l.058 1.121v.004a2.32 2.32 0 0 1-4.031 1.666l-.756-.833-.001-.002a.82.82 0 0 0-.275-.199c-.104-.047-.218-.07-.332-.07h.003zM9.999 3.616c-.325 0-.645-.068-.942-.2s-.561-.324-.778-.565l-.001-.001-.75-.828a.82.82 0 0 0-1.422.589L6.16 3.73a2.32 2.32 0 0 1-.15.95c-.116.304-.295.579-.525.809s-.505.409-.809.526a2.31 2.31 0 0 1-.952.151l-1.118-.057a.82.82 0 0 0-.477.126c-.142.09-.253.222-.317.378a.82.82 0 0 0 .206.918l.832.755h.001a2.32 2.32 0 0 1 0 3.441l-.833.752a.82.82 0 0 0-.249.427c-.037.165-.022.337.043.493s.176.288.319.378.31.133.478.125l1.121-.057a2.32 2.32 0 0 1 .95.151 2.31 2.31 0 0 1 1.331 1.331 2.32 2.32 0 0 1 .151.95l-.057 1.117v.002a.82.82 0 0 0 1.422.587l.755-.831.001-.001a2.32 2.32 0 0 1 3.436 0l.001.001.755.831a.82.82 0 0 0 1.422-.587v-.002l-.057-1.117a2.32 2.32 0 0 1 .151-.95 2.31 2.31 0 0 1 1.331-1.331 2.32 2.32 0 0 1 .95-.151l1.121.057c.168.009.335-.035.478-.125a.82.82 0 0 0 .113-1.297l-.833-.752a2.32 2.32 0 0 1 0-3.441h.001l.832-.755c.125-.113.211-.262.248-.426a.82.82 0 0 0-.042-.492c-.064-.156-.175-.288-.317-.378a.82.82 0 0 0-.477-.126l-1.118.057a2.31 2.31 0 0 1-1.76-.677c-.229-.23-.408-.506-.525-.809a2.32 2.32 0 0 1-.15-.95l.054-1.119a.82.82 0 0 0-.127-.476c-.09-.142-.222-.253-.378-.317a.82.82 0 0 0-.918.205l-.75.828-.001.001c-.217.241-.482.433-.778.565s-.617.2-.942.2h-.005z"/></svg>