<svg xmlns="http://www.w3.org/2000/svg" width="21" height="22"><path d="M14.856 22a6.19 6.19 0 0 1-3.418-1.024c-1.012-.669-1.801-1.62-2.267-2.733a6.04 6.04 0 0 1-.352-3.521 6.08 6.08 0 0 1 1.682-3.121c.86-.853 1.955-1.433 3.148-1.669a6.2 6.2 0 0 1 3.553.346 6.13 6.13 0 0 1 2.76 2.244A6.06 6.06 0 0 1 21 15.907a6.07 6.07 0 0 1-1.801 4.305c-1.152 1.142-2.714 1.785-4.343 1.788zm0-10.737a4.72 4.72 0 0 0-2.605.78c-.771.51-1.373 1.235-1.729 2.083s-.449 1.783-.269 2.684a4.63 4.63 0 0 0 1.282 2.379 4.7 4.7 0 0 0 2.4 1.272 4.72 4.72 0 0 0 2.709-.264 4.68 4.68 0 0 0 2.104-1.71c.515-.764.79-1.662.79-2.581-.001-1.231-.495-2.41-1.373-3.281a4.71 4.71 0 0 0-3.31-1.363zm2.066 3.935h-1.335v-1.323a.72.72 0 0 0-.214-.512c-.137-.136-.323-.212-.517-.212s-.38.076-.517.212a.72.72 0 0 0-.214.512v1.323h-1.34c-.194 0-.38.076-.517.212a.72.72 0 0 0 0 1.024c.137.136.323.212.517.212h1.34v1.323a.72.72 0 0 0 .214.512c.137.136.323.212.517.212s.38-.076.517-.212a.72.72 0 0 0 .214-.512v-1.323h1.335c.194 0 .38-.076.517-.212a.72.72 0 0 0 0-1.024c-.137-.136-.323-.212-.517-.212zM1.856 19.731V1.892h1.837v9.926l2.821-2.414 2.387 2.047.434-.545V1.892h6.285v5.581a.86.86 0 0 0 .259.611.88.88 0 0 0 1.235 0 .86.86 0 0 0 .256-.611V1.704A1.7 1.7 0 0 0 16.865.5 1.73 1.73 0 0 0 15.65 0H1.72A1.73 1.73 0 0 0 .505.501 1.7 1.7 0 0 0 0 1.704v18.099a1.7 1.7 0 0 0 .503 1.207 1.73 1.73 0 0 0 1.216.502h6.1c.235-.001.46-.094.626-.259a.88.88 0 0 0 .261-.62c0-.232-.093-.455-.258-.62a.89.89 0 0 0-.624-.259l-5.969-.024zM7.601 8.12l-1.087-.806-1.087.806V1.892H7.6V8.12z"/><path d="M9.336 11.818v-.917l-.434.546.434.372z"/></svg>