<svg xmlns="http://www.w3.org/2000/svg" width="20" height="20"><path d="M0 1.75A1.75 1.75 0 0 1 1.75 0h5A1.75 1.75 0 0 1 8.5 1.75v7a1.75 1.75 0 0 1-1.75 1.75h-5A1.75 1.75 0 0 1 0 8.75v-7zm1.75-.25a.25.25 0 0 0-.25.25v7a.25.25 0 0 0 .25.25h5A.25.25 0 0 0 7 8.75v-7a.25.25 0 0 0-.25-.25h-5zm9.25.25A1.75 1.75 0 0 1 12.75 0h5a1.75 1.75 0 0 1 1.75 1.75v3a1.75 1.75 0 0 1-1.75 1.75h-5A1.75 1.75 0 0 1 11 4.75v-3zm1.75-.25a.25.25 0 0 0-.25.25v3a.25.25 0 0 0 .25.25h5a.25.25 0 0 0 .25-.25v-3a.25.25 0 0 0-.25-.25h-5zM11 10.75A1.75 1.75 0 0 1 12.75 9h5a1.75 1.75 0 0 1 1.75 1.75v7a1.75 1.75 0 0 1-1.75 1.75h-5A1.75 1.75 0 0 1 11 17.75v-7zm1.75-.25a.25.25 0 0 0-.25.25v7a.25.25 0 0 0 .25.25h5a.25.25 0 0 0 .25-.25v-7a.25.25 0 0 0-.25-.25h-5zM0 14.75A1.75 1.75 0 0 1 1.75 13h5a1.75 1.75 0 0 1 1.75 1.75v3a1.75 1.75 0 0 1-1.75 1.75h-5A1.75 1.75 0 0 1 0 17.75v-3zm1.75-.25a.25.25 0 0 0-.25.25v3a.25.25 0 0 0 .25.25h5a.25.25 0 0 0 .25-.25v-3a.25.25 0 0 0-.25-.25h-5z"/></svg>