<svg xmlns="http://www.w3.org/2000/svg" width="20" height="20"><path d="M6.784 12.158l-.185-.147-2.711-2.494c-.293-.294-.661-.5-1.064-.597a2.23 2.23 0 0 0-1.218.052 2.27 2.27 0 0 0-.997.627 2.28 2.28 0 0 0-.55 1.043c-.089.39-.074.797.044 1.179s.334.727.627.999l3.836 3.572c1.99 1.954 4.657 3.059 7.442 3.084h6.649a.77.77 0 0 0 .315-.037c.101-.034.194-.088.274-.16s.143-.159.187-.257.067-.203.069-.31-.021-.218-.066-.318a.76.76 0 0 0-.474-.419.76.76 0 0 0-.323-.026h-6.119c-2.428.089-4.796-.77-6.604-2.398l-4.143-3.847a.77.77 0 0 1-.255-.537.77.77 0 0 1 .204-.559c.07-.074.155-.133.249-.174a.75.75 0 0 1 .595 0c.094.04.179.1.249.174l4.539 4.162c.34.347.795.559 1.279.596h4.13a.7.7 0 0 0 .472-.206c.126-.126.199-.295.205-.474.013-.111.001-.224-.035-.33s-.096-.202-.175-.282a.74.74 0 0 0-.608-.215H8.906a.76.76 0 0 1-.447-.129c-.132-.088-.233-.216-.289-.365a.72.72 0 0 1 .153-.795.89.89 0 0 1 .338-.213c.127-.044.263-.059.397-.043h6.924c.147-.01.294-.01.441 0 .389.048.75.226 1.025.507s.445.647.484 1.038v.943c0 .202.08.396.223.539a.76.76 0 0 0 1.076 0c.143-.143.223-.337.223-.539v-.75c-.003-.856-.339-1.677-.936-2.289s-1.408-.966-2.261-.988H8.83c-.29-.009-.579.044-.848.154a2.07 2.07 0 0 0-.712.487c-.147.276-.307.513-.486.744z"/><path d="M6.783 12.158c.179-.231.339-.468.531-.641a2.07 2.07 0 0 1 .712-.487c.269-.111.558-.163.848-.154h7.429c.853.022 1.664.376 2.261.988s.933 1.433.936 2.289v.75c0 .202-.08.396-.223.54a.76.76 0 0 1-1.076 0c-.143-.143-.223-.337-.223-.54v-.943c-.039-.391-.21-.757-.484-1.038s-.636-.46-1.025-.507a3.38 3.38 0 0 0-.441 0H9.091c-.134-.016-.27-.001-.397.043a.89.89 0 0 0-.338.213.72.72 0 0 0-.153.795c.056.149.157.277.289.365a.76.76 0 0 0 .447.129h3.715a.74.74 0 0 1 .608.215c.079.079.138.176.175.282s.048.219.035.33c-.006.178-.08.348-.206.474s-.294.2-.472.206h-4.13c-.484-.037-.938-.249-1.279-.596l-4.539-4.162c-.07-.074-.155-.133-.249-.174s-.195-.061-.297-.061-.203.021-.297.061-.179.1-.249.174a.77.77 0 0 0-.204.559.77.77 0 0 0 .255.537l4.143 3.847c1.808 1.628 4.176 2.488 6.604 2.398h6.119a.76.76 0 0 1 .549.161c.155.123.256.302.282.499a.78.78 0 0 1-.073.309c-.046.097-.111.183-.191.254s-.175.123-.277.156a.77.77 0 0 1-.316.031h-6.649c-2.785-.025-5.452-1.131-7.442-3.084L.716 12.806a2.28 2.28 0 0 1-.627-.998c-.118-.382-.133-.789-.044-1.179a2.28 2.28 0 0 1 .55-1.043 2.27 2.27 0 0 1 .997-.627 2.23 2.23 0 0 1 1.218-.052c.403.096.771.303 1.064.597l2.711 2.494c.077.071.128.115.198.16z"/><path fill="red" d="M10.671 8.855c2.481-2.264 4.814-4.38 4.814-6.201.003-.35-.063-.696-.194-1.02a2.63 2.63 0 0 0-.573-.865 2.62 2.62 0 0 0-.862-.575c-.323-.132-.668-.199-1.017-.195-.412.003-.819.094-1.192.268s-.706.426-.975.739C10.4.694 10.066.443 9.692.269A2.91 2.91 0 0 0 8.497 0c-.349-.003-.694.063-1.017.195a2.62 2.62 0 0 0-.862.575 2.63 2.63 0 0 0-.573.865c-.132.324-.198.67-.194 1.02 0 1.821 2.334 3.937 4.821 6.201zM8.497 1.61c.181.002.359.042.524.119a1.28 1.28 0 0 1 .429.324l1.221 1.443 1.215-1.443a1.28 1.28 0 0 1 .429-.324c.164-.076.343-.117.524-.119.138-.004.275.021.403.072s.244.128.342.226a1.02 1.02 0 0 1 .297.747c0 .904-1.637 2.565-3.197 4.021-1.579-1.468-3.197-3.123-3.197-4.021a1.02 1.02 0 0 1 .286-.735c.094-.097.207-.175.331-.228s.258-.081.393-.082z"/></svg>