<svg xmlns="http://www.w3.org/2000/svg" width="20" height="20"><path d="M10.106 5.503a1.66 1.66 0 0 0-.808.151c-.245.115-.441.285-.573.483s-.197.415-.197.633a.75.75 0 1 1-1.5 0c0-.523.159-1.031.451-1.467s.702-.78 1.181-1.005a3.16 3.16 0 0 1 1.541-.291 3.12 3.12 0 0 1 1.489.484c.444.285.803.683 1.027 1.155s.305.999.226 1.516-.312.996-.663 1.387a2.99 2.99 0 0 1-1.31.841c-.081.026-.139.071-.174.116s-.046.087-.046.123v.678a.75.75 0 1 1-1.5 0V9.63a1.7 1.7 0 0 1 .362-1.044c.23-.296.547-.51.9-.623.264-.085.488-.231.652-.414s.263-.395.296-.612a1.1 1.1 0 0 0-.098-.645 1.32 1.32 0 0 0-.485-.538c-.222-.142-.489-.231-.771-.248zm-.723 7.212a1.11 1.11 0 0 1 1.541 1.541 1.11 1.11 0 0 1-2.014-.401 1.11 1.11 0 0 1 .472-1.141zM.25 9.75a9.75 9.75 0 1 1 19.5 0 9.75 9.75 0 1 1-19.5 0zM10 1.5A8.25 8.25 0 1 0 10 18a8.25 8.25 0 1 0 0-16.5z"/></svg>