<svg xmlns="http://www.w3.org/2000/svg" width="22" height="22"><path d="M21.141 15.125a.86.86 0 0 0 .859-.859V4.383a.86.86 0 0 0-.252-.608L18.225.252A.86.86 0 0 0 17.617 0H3.438C1.542 0 0 1.542 0 3.438v15.125C0 20.458 1.542 22 3.438 22h15.125C20.458 22 22 20.458 22 18.563a.86.86 0 0 0-.859-.859.86.86 0 0 0-.859.859 1.72 1.72 0 0 1-1.719 1.719v-6.875a.86.86 0 0 0-.859-.859H4.297a.86.86 0 0 0-.859.859v6.875a1.72 1.72 0 0 1-1.719-1.719V3.438a1.72 1.72 0 0 1 1.719-1.719v5.07a2.58 2.58 0 0 0 2.578 2.578h8.637a2.58 2.58 0 0 0 2.578-2.578v-5.07h.031l3.02 3.02v9.527a.86.86 0 0 0 .859.859zm-15.984-.859h11.688v6.016H5.156v-6.016zm10.355-7.477a.86.86 0 0 1-.859.859H6.016a.86.86 0 0 1-.859-.859v-5.07h10.355v5.07z"/></svg>