<svg xmlns="http://www.w3.org/2000/svg" width="22" height="22"><path d="M21.743 20.448l-5.467-5.467c1.49-1.822 2.222-4.147 2.046-6.494s-1.248-4.537-2.993-6.116S11.297-.056 8.945.003s-4.593 1.02-6.258 2.684S.062 6.592.003 8.945s.789 4.639 2.368 6.384 3.769 2.817 6.116 2.993 4.672-.556 6.494-2.046l5.467 5.467c.173.167.404.259.644.257s.47-.098.64-.268.266-.399.268-.64-.09-.471-.257-.644zM9.188 16.516a7.33 7.33 0 0 1-4.071-1.235c-1.205-.805-2.144-1.95-2.699-3.288s-.7-2.812-.417-4.234.981-2.727 2.005-3.752 2.33-1.723 3.752-2.005 2.895-.138 4.234.417 2.483 1.494 3.288 2.699a7.33 7.33 0 0 1 1.235 4.071c-.002 1.943-.775 3.805-2.149 5.179s-3.236 2.146-5.179 2.149z"/></svg>