<svg xmlns="http://www.w3.org/2000/svg" width="24" height="24"><path d="M4.917 7H3.083C1.935 7 1 6.065 1 4.917V3.083C1 1.935 1.935 1 3.083 1h1.833C6.065 1 7 1.935 7 3.083v1.833C7 6.065 6.065 7 4.917 7zm0 8H3.083C1.935 15 1 14.065 1 12.917v-1.833C1 9.935 1.935 9 3.083 9h1.833C6.065 9 7 9.935 7 11.083v1.833C7 14.065 6.065 15 4.917 15zm0 8H3.083C1.935 23 1 22.065 1 20.917v-1.833C1 17.935 1.935 17 3.083 17h1.833C6.065 17 7 17.935 7 19.083v1.833C7 22.065 6.065 23 4.917 23zm8-16h-1.833C9.935 7 9 6.065 9 4.917V3.083C9 1.935 9.935 1 11.083 1h1.833C14.065 1 15 1.935 15 3.083v1.833C15 6.065 14.065 7 12.917 7zm0 8h-1.833C9.935 15 9 14.065 9 12.917v-1.833C9 9.935 9.935 9 11.083 9h1.833C14.065 9 15 9.935 15 11.083v1.833C15 14.065 14.065 15 12.917 15zm0 8h-1.833C9.935 23 9 22.065 9 20.917v-1.833C9 17.935 9.935 17 11.083 17h1.833c1.149 0 2.083.935 2.083 2.083v1.833C15 22.065 14.065 23 12.917 23zm8-16h-1.833C17.935 7 17 6.065 17 4.917V3.083C17 1.935 17.935 1 19.083 1h1.833C22.065 1 23 1.935 23 3.083v1.833C23 6.065 22.065 7 20.917 7zm0 8h-1.833C17.935 15 17 14.065 17 12.917v-1.833C17 9.935 17.935 9 19.083 9h1.833C22.065 9 23 9.935 23 11.083v1.833C23 14.065 22.065 15 20.917 15zm0 8h-1.833C17.935 23 17 22.065 17 20.917v-1.833c0-1.149.935-2.083 2.083-2.083h1.833c1.149 0 2.083.935 2.083 2.083v1.833C23 22.065 22.065 23 20.917 23z"/></svg>