<svg xmlns="http://www.w3.org/2000/svg" width="14" height="16"><path d="M13.281 3.044H9.815v-.659A1.72 1.72 0 0 0 8.096.667H6.091a1.72 1.72 0 0 0-1.719 1.719v.659H.906c-.316 0-.573.256-.573.573a.57.57 0 0 0 .573.573H1.5l.698 9.052a2.29 2.29 0 0 0 2.283 2.091h5.226c1.194 0 2.175-.889 2.282-2.068.029-.315-.203-.594-.519-.623s-.594.203-.623.518c-.053.585-.544 1.026-1.141 1.026H4.481a1.14 1.14 0 0 1-1.141-1.038L2.649 4.19h8.89l-.489 6.344c-.024.315.212.591.527.615l.045.002c.296 0 .547-.228.571-.529l.496-6.432h.593c.316 0 .573-.256.573-.573a.57.57 0 0 0-.573-.573zm-4.612 0H5.518v-.659c0-.316.257-.573.573-.573h2.005c.316 0 .573.257.573.573v.659zM4.491 5.336c-.316.014-.561.281-.547.597l.286 6.558c.013.308.267.548.572.548l.025-.001c.316-.014.561-.281.547-.597l-.286-6.558c-.014-.316-.282-.562-.597-.547zm4.609.548l-.286 6.558c-.014.316.231.583.547.597l.025.001c.305 0 .558-.24.572-.548l.286-6.558a.57.57 0 0 0-.547-.597c-.316-.013-.584.231-.597.547zm-2.579.025v6.558a.57.57 0 1 0 1.146 0V5.909c0-.316-.256-.573-.573-.573a.57.57 0 0 0-.573.573z"/></svg>