<svg xmlns="http://www.w3.org/2000/svg" width="24" height="24"><path d="M16.794 12.039a11.18 11.18 0 0 0-1.293-.519 5.84 5.84 0 0 0 2.343-4.676A5.85 5.85 0 0 0 12 1C8.778 1 6.156 3.622 6.156 6.844a5.84 5.84 0 0 0 2.348 4.68 11.17 11.17 0 0 0-3.601 1.979c-1.965 1.616-3.331 3.871-3.847 6.349a2.61 2.61 0 0 0 .531 2.188c.497.611 1.233.961 2.021.961h10.584a.86.86 0 0 0 .859-.859.86.86 0 0 0-.859-.859H3.608a.87.87 0 0 1-.687-.327.9.9 0 0 1-.182-.753c.892-4.284 4.67-7.413 9.034-7.519a5.94 5.94 0 0 0 .228.004 5.84 5.84 0 0 0 .23-.005 9.36 9.36 0 0 1 3.826.908.86.86 0 0 0 1.145-.407.86.86 0 0 0-.407-1.145zm-4.584-1.076l-.21-.002-.208.002a4.13 4.13 0 0 1-3.917-4.12A4.13 4.13 0 0 1 12 2.719a4.13 4.13 0 0 1 4.125 4.125 4.13 4.13 0 0 1-3.915 4.12zm9.931 7.096h-2.363v-2.363a.86.86 0 0 0-.859-.859.86.86 0 0 0-.859.859v2.363h-2.363a.86.86 0 0 0-.859.859.86.86 0 0 0 .859.859h2.363v2.363a.86.86 0 0 0 .859.859.86.86 0 0 0 .859-.859v-2.363h2.363a.86.86 0 0 0 .859-.859.86.86 0 0 0-.859-.859z"/></svg>